<?xml version="1.0" encoding="UTF-8"?>
<svg width="14px" height="8px" viewBox="0 0 14 8" version="1.1" xmlns="http://www.w3.org/2000/svg" xmlns:xlink="http://www.w3.org/1999/xlink">
    <title>形状结合备份</title>
    <g id="改版V62" stroke="none" stroke-width="1" fill="none" fill-rule="evenodd">
        <g id="13__真人" transform="translate(-1640.000000, -778.000000)" fill="#FFF7EF" fill-rule="nonzero">
            <path d="M1649.54043,778.070351 L1649.61849,778.124779 L1653.65881,781.513073 C1653.85831,781.587937 1654,781.777713 1654,781.999999 L1653.99973,782.022745 C1654.00364,782.143613 1653.9651,782.265541 1653.88425,782.364642 L1653.80943,782.439516 L1649.61396,785.878977 C1649.38904,786.063365 1649.05455,786.03373 1648.86685,785.812786 C1648.7,785.61639 1648.7053,785.334945 1648.8665,785.145324 L1648.93423,785.078866 L1652.051,782.521 L1640.53043,782.521064 C1640.23748,782.521064 1640,782.287775 1640,781.999999 C1640,781.744197 1640.18764,781.531448 1640.43509,781.487328 L1640.53043,781.478933 L1651.982,781.478 L1648.92969,778.917372 C1648.73165,778.751286 1648.68876,778.472962 1648.81527,778.259444 L1648.87067,778.182759 C1649.03974,777.988209 1649.32307,777.946082 1649.54043,778.070351 Z" id="形状结合备份"></path>
        </g>
    </g>
</svg>