<?xml version="1.0" encoding="UTF-8"?>
<svg width="392px" height="126px" viewBox="0 0 392 126" version="1.1" xmlns="http://www.w3.org/2000/svg" xmlns:xlink="http://www.w3.org/1999/xlink">
    <title>编组</title>
    <g id="改版V62" stroke="none" stroke-width="1" fill="none" fill-rule="evenodd">
        <g id="13__真人" transform="translate(-356.000000, -872.000000)">
            <g id="编组" transform="translate(357.000000, 873.000000)">
                <rect id="矩形" fill="#101114" x="0" y="0" width="390" height="124" rx="2"></rect>
                <line x1="0" y1="24.647541" x2="390" y2="25.1557377" id="直线-3" stroke="#2A2E36" stroke-linecap="square"></line>
                <line x1="49.5157068" y1="1.43583062e-14" x2="49.5157068" y2="124" id="直线-3" stroke="#24272E" stroke-linecap="square"></line>
                <line x1="72.9973822" y1="1.43583062e-14" x2="72.9973822" y2="124" id="直线-3" stroke="#24272E" stroke-linecap="square"></line>
                <line x1="97.5" y1="1.43583062e-14" x2="97.5" y2="124" id="直线-3" stroke="#24272E" stroke-linecap="square"></line>
                <line x1="122.002618" y1="1.43583062e-14" x2="122.002618" y2="124" id="直线-3" stroke="#24272E" stroke-linecap="square"></line>
                <line x1="146.505236" y1="1.43583062e-14" x2="146.505236" y2="124" id="直线-3" stroke="#24272E" stroke-linecap="square"></line>
                <line x1="171.007853" y1="1.43583062e-14" x2="171.007853" y2="124" id="直线-3" stroke="#24272E" stroke-linecap="square"></line>
                <line x1="195.510471" y1="1.43583062e-14" x2="195.510471" y2="124" id="直线-3" stroke="#24272E" stroke-linecap="square"></line>
                <line x1="220.013089" y1="1.43583062e-14" x2="220.013089" y2="124" id="直线-3" stroke="#24272E" stroke-linecap="square"></line>
                <line x1="243.494764" y1="1.43583062e-14" x2="243.494764" y2="124" id="直线-3" stroke="#24272E" stroke-linecap="square"></line>
                <line x1="267.997382" y1="1.43583062e-14" x2="267.997382" y2="124" id="直线-3" stroke="#24272E" stroke-linecap="square"></line>
                <line x1="292.5" y1="1.43583062e-14" x2="292.5" y2="124" id="直线-3" stroke="#24272E" stroke-linecap="square"></line>
                <line x1="318.02356" y1="1.43583062e-14" x2="318.02356" y2="124" id="直线-3" stroke="#24272E" stroke-linecap="square"></line>
                <line x1="341.505236" y1="1.43583062e-14" x2="341.505236" y2="124" id="直线-3" stroke="#24272E" stroke-linecap="square"></line>
                <line x1="366.007853" y1="1.43583062e-14" x2="366.007853" y2="124" id="直线-3" stroke="#24272E" stroke-linecap="square"></line>
                <line x1="25.013089" y1="1.43583062e-14" x2="25.013089" y2="124" id="直线-3" stroke="#24272E" stroke-linecap="square"></line>
                <line x1="0" y1="49.295082" x2="390" y2="49.295082" id="直线-3" stroke="#24272E" stroke-linecap="square"></line>
                <line x1="0" y1="74.704918" x2="390" y2="74.704918" id="直线-3" stroke="#24272E" stroke-linecap="square"></line>
                <line x1="0" y1="99.0983607" x2="390" y2="99.0983607" id="直线-3" stroke="#24272E" stroke-linecap="square"></line>
            </g>
        </g>
    </g>
</svg>