<?xml version="1.0" encoding="UTF-8"?>
<svg width="24px" height="24px" viewBox="0 0 24 24" version="1.1" xmlns="http://www.w3.org/2000/svg" xmlns:xlink="http://www.w3.org/1999/xlink">
    <title>参与人数</title>
    <g id="参与人数" stroke="none" stroke-width="1" fill="none" fill-rule="evenodd">
        <path d="M9.5828946,3 C12.1241909,3 14.1843186,5.09117461 14.1843186,7.67076923 C14.1843186,9.47065587 13.1813634,11.0327595 11.7118076,11.8126425 C13.3541253,12.8438046 14.7050428,14.0164973 15.7660773,15.3288615 C16.417929,16.1351188 17.0046089,16.9413762 17.5261169,17.7476335 C18.1260074,18.6750968 17.8604728,19.913265 16.9330172,20.5131672 C16.6094056,20.7224875 16.2322062,20.8338462 15.8467981,20.8338462 L3.25605068,20.8338462 C2.15149436,20.8338223 1.25607454,19.9384025 1.25607454,18.8338462 C1.25607454,18.4316437 1.37734107,18.0387854 1.60404229,17.7065606 C2.06097893,17.0369315 2.60403382,16.3130136 3.23320698,15.5348068 C4.46179074,14.0152056 5.85650832,12.7673639 7.41735972,11.7912816 C5.96809414,11.0072027 4.9814706,9.45594148 4.9814706,7.67076923 C4.9814706,5.09117461 7.0415983,3 9.5828946,3 Z M15.4446357,3.84923077 C18.0214446,3.84923077 20.106111,5.77113091 20.106111,8.3215169 C20.106111,9.54161165 19.8218066,10.5881274 19.3313907,11.5336546 L19.2226697,11.7304127 C19.2014029,11.76739 19.1788747,11.8059883 19.155553,11.8455005 C21.1926039,13.4139725 22.1803921,14.7368805 22.7989419,16.19536 C23.3579598,17.5134694 23.0865559,18.8670647 21.9535221,19.5921051 C21.6028851,19.8164815 21.2037755,19.9487149 20.7921279,19.9782674 L20.6150447,19.9846154 L19.6076943,19.9846154 C19.1456405,19.9846154 18.7710718,19.6044018 18.7710718,19.1353846 C18.7710718,18.6998686 19.0940417,18.3409231 19.5101265,18.2918672 L19.6076943,18.2861538 L20.6150447,18.2861538 C20.7729481,18.2861538 20.9276278,18.2407938 21.0612039,18.1553171 C21.430332,17.919108 21.5195575,17.4741064 21.2620606,16.8669542 C20.7253012,15.6013281 19.8482458,14.4560585 17.8240049,12.958179 C17.7603685,12.9458304 17.6980712,12.9252982 17.637797,12.8968727 L17.5517019,12.8499285 C17.1579252,12.6045549 17.0346674,12.0816105 17.2763979,11.6818994 L17.5433908,11.2692153 C17.6604822,11.0866829 17.7581139,10.92112 17.8508094,10.7424021 C18.2209793,10.0287106 18.4328659,9.24876237 18.4328659,8.3215169 C18.4328659,6.74758694 17.1313518,5.54769231 15.4446357,5.54769231 C14.9825818,5.54769231 14.6080131,5.16747874 14.6080131,4.69846154 C14.6080131,4.22944434 14.9825818,3.84923077 15.4446357,3.84923077 Z" id="形状结合" fill="#FFFFFF"></path>
    </g>
</svg>