<?xml version="1.0" encoding="UTF-8"?>
<svg width="30px" height="30px" viewBox="0 0 30 30" version="1.1" xmlns="http://www.w3.org/2000/svg" xmlns:xlink="http://www.w3.org/1999/xlink">
    <!-- Generator: Sketch 63.1 (92452) - https://sketch.com -->
    <title>数字币</title>
    <desc>Created with Sketch.</desc>
    <g id="06-推荐好友" stroke="none" stroke-width="1" fill="none" fill-rule="evenodd">
        <g id="充值方式" transform="translate(-380.000000, -514.000000)" fill="#8E8E99" fill-rule="nonzero">
            <path d="M394.966518,514.01043 C403.226518,514.01043 409.922606,520.706484 409.922606,528.966518 C409.922606,537.226552 403.226518,543.922606 394.966518,543.922606 C386.706518,543.922606 380.01043,537.226518 380.01043,528.966518 C380.01043,520.706518 386.706484,514.01043 394.966518,514.01043 Z M401.080328,522 L388.907104,522 L388.907104,524.972678 L393.395082,524.972678 L393.395082,526.915301 C389.746995,527.079235 387,527.798361 387,528.661202 C387,529.52459 389.746995,530.243169 393.395082,530.407104 L393.395082,536.640984 L396.592896,536.640984 L396.592896,530.406011 C400.226776,530.239344 402.960109,529.521311 402.960109,528.661202 C402.960109,527.801093 400.226776,527.08306 396.592896,526.916393 L396.592896,524.972678 L401.080328,524.972678 L401.080328,522 Z M393.39235,527.304918 L393.39235,529.108197 C394.457607,529.162616 395.524963,529.162069 396.590164,529.106557 L396.590164,527.309836 C399.461202,527.442077 401.585792,527.918033 401.585792,528.485792 C401.585792,529.053005 399.461202,529.529508 396.592896,529.661202 L396.407104,529.668852 L396.386885,529.668852 L396.213115,529.67541 L396.193989,529.67541 C396.063231,529.679917 395.932445,529.683561 395.801639,529.686339 L395.793443,529.686339 L395.615301,529.690164 L395.565027,529.690164 L395.425137,529.69235 L394.536612,529.69235 L394.397814,529.690164 L394.349727,529.690164 L394.183607,529.686885 L394.165574,529.686885 C393.971903,529.682456 393.778272,529.676445 393.584699,529.668852 L393.581967,529.668852 L393.39235,529.660656 C390.50929,529.530601 388.371585,529.053005 388.371585,528.48306 C388.371585,527.912568 390.509836,527.436066 393.39235,527.304918 Z" id="数字币"></path>
        </g>
    </g>
</svg>