<?xml version="1.0" encoding="UTF-8"?>
<svg width="30px" height="30px" viewBox="0 0 30 30" version="1.1" xmlns="http://www.w3.org/2000/svg" xmlns:xlink="http://www.w3.org/1999/xlink">
    <!-- Generator: Sketch 63.1 (92452) - https://sketch.com -->
    <title>rmb</title>
    <desc>Created with Sketch.</desc>
    <g id="06-推荐好友" stroke="none" stroke-width="1" fill="none" fill-rule="evenodd">
        <g id="充值方式" transform="translate(-380.000000, -339.000000)" fill="#8E8E99" fill-rule="nonzero">
            <path d="M394.966518,339.01043 C403.226518,339.01043 409.922606,345.706484 409.922606,353.966518 C409.922606,362.226552 403.226518,368.922606 394.966518,368.922606 C386.706518,368.922606 380.01043,362.226518 380.01043,353.966518 C380.01043,345.706518 386.706484,339.01043 394.966518,339.01043 Z M391.545617,346.5 L389.332415,346.5 C389.084466,346.5 388.92978,346.759069 389.054558,346.965767 L392.607517,352.289088 C392.732296,352.495785 392.577609,352.754855 392.329661,352.754855 L390.073365,352.754855 C389.895846,352.754855 389.751772,352.893686 389.751772,353.064747 L389.751772,354.570201 C389.751772,354.741261 389.895846,354.880093 390.073365,354.880093 L393.385772,354.880093 C393.563292,354.880093 393.707365,355.018924 393.707365,355.189984 L393.707365,356.025143 C393.707365,356.196203 393.563292,356.335034 393.385772,356.335034 L390.073365,356.335034 C389.895846,356.335034 389.751772,356.473866 389.751772,356.644926 L389.751772,358.169593 C389.751772,358.340654 389.895846,358.479485 390.073365,358.479485 L393.385772,358.479485 C393.563292,358.479485 393.707365,358.618317 393.707365,358.789377 L393.707365,361.190108 C393.707365,361.361168 393.851439,361.5 394.028958,361.5 L395.99164,361.5 C396.16916,361.5 396.313233,361.361168 396.313233,361.190108 L396.313233,358.789377 C396.313233,358.618317 396.457307,358.479485 396.634826,358.479485 L399.807019,358.479485 C399.984539,358.479485 400.128612,358.340654 400.128612,358.169593 L400.128612,356.644926 C400.128612,356.473866 399.984539,356.335034 399.807019,356.335034 L396.634826,356.335034 C396.457307,356.335034 396.313233,356.196203 396.313233,356.025143 L396.313233,355.189984 C396.313233,355.018924 396.457307,354.880093 396.634826,354.880093 L399.807019,354.880093 C399.984539,354.880093 400.128612,354.741261 400.128612,354.570201 L400.128612,353.064747 C400.128612,352.893686 399.984539,352.754855 399.807019,352.754855 L397.656527,352.754855 C397.407936,352.754855 397.25325,352.494546 397.379314,352.287848 L400.965397,346.966697 C401.091783,346.760619 400.937097,346.50031 400.688506,346.50031 L398.595579,346.50031 C398.477554,346.50031 398.369177,346.562598 398.312898,346.662383 L395.958516,350.284708 C395.717965,350.718556 395.514075,351.095385 395.344917,351.417672 C395.225927,351.644513 394.890184,351.644513 394.771195,351.417672 C394.160168,350.253409 393.175129,349.032745 391.827655,346.661144 C391.771376,346.561978 391.662999,346.5 391.545617,346.5 Z" id="rmb"></path>
        </g>
    </g>
</svg>