<?xml version="1.0" encoding="UTF-8"?>
<svg width="50px" height="50px" viewBox="0 0 50 50" version="1.1" xmlns="http://www.w3.org/2000/svg" xmlns:xlink="http://www.w3.org/1999/xlink">
    <!-- Generator: Sketch 53.2 (72643) - https://sketchapp.com -->
    <title>tankuang_guanbi</title>
    <desc>Created with Sketch.</desc>
    <defs>
        <linearGradient x1="82.9292234%" y1="15.5867313%" x2="15.3457507%" y2="81.7172907%" id="linearGradient-1">
            <stop stop-color="#B71122" offset="0%"></stop>
            <stop stop-color="#9A0019" offset="100%"></stop>
        </linearGradient>
        <linearGradient x1="19.5436375%" y1="12.3187029%" x2="76.3611896%" y2="87.6213114%" id="linearGradient-2">
            <stop stop-color="#F0F0F0" offset="0%"></stop>
            <stop stop-color="#C0C0C0" offset="55.2285684%"></stop>
            <stop stop-color="#F0F0F0" offset="100%"></stop>
        </linearGradient>
    </defs>
    <g id="Page-1" stroke="none" stroke-width="1" fill="none" fill-rule="evenodd">
        <g id="切图整理" transform="translate(-576.000000, -45.000000)">
            <g id="tankuang_guanbi" transform="translate(576.000000, 45.000000)">
                <circle id="椭圆形" fill="url(#linearGradient-1)" cx="25" cy="25" r="25"></circle>
                <g id="分组-5" transform="translate(11.041667, 11.041667)" fill="#FFFFFF">
                    <polygon id="矩形" transform="translate(13.958333, 13.958333) rotate(-45.000000) translate(-13.958333, -13.958333) " points="10.8333333 -1.66666667 17.0833333 -1.66666667 17.0833333 29.5833333 10.8333333 29.5833333"></polygon>
                    <polygon id="矩形" transform="translate(13.958333, 13.958333) scale(-1, 1) rotate(-45.000000) translate(-13.958333, -13.958333) " points="10.8333333 -1.66666667 17.0833333 -1.66666667 17.0833333 29.5833333 10.8333333 29.5833333"></polygon>
                </g>
                <path d="M25,50 C11.1928813,50 0,38.8071187 0,25 C0,11.1928813 11.1928813,0 25,0 C38.8071187,0 50,11.1928813 50,25 C50,38.8071187 38.8071187,50 25,50 Z M25,46.6666667 C36.9661696,46.6666667 46.6666667,36.9661696 46.6666667,25 C46.6666667,13.0338304 36.9661696,3.33333333 25,3.33333333 C13.0338304,3.33333333 3.33333333,13.0338304 3.33333333,25 C3.33333333,36.9661696 13.0338304,46.6666667 25,46.6666667 Z" id="合并形状" fill="url(#linearGradient-2)"></path>
            </g>
        </g>
    </g>
</svg>