<?xml version="1.0" encoding="UTF-8"?>
<svg width="84px" height="84px" viewBox="0 0 84 84" version="1.1" xmlns="http://www.w3.org/2000/svg" xmlns:xlink="http://www.w3.org/1999/xlink">
    <title>技术支援icon1@1x</title>
    <g id="页面-2" stroke="none" stroke-width="1" fill="none" fill-rule="evenodd">
        <g id="技术支援" transform="translate(-472.000000, -987.000000)">
            <g id="编组-3备份-2" transform="translate(410.000000, 745.000000)">
                <g id="技术支援icon1" transform="translate(62.000000, 242.000000)">
                    <circle id="椭圆形" fill="#16171C" cx="42" cy="42" r="42"></circle>
                    <path d="M54.9780921,49.0785377 L29.0219374,49.0785377 C27.9070274,49.0785377 27,48.1715102 27,47.0566002 L27,30.0219374 C27,28.9070274 27.9070274,28 29.0219374,28 L54.9780626,28 C56.0929726,28 57,28.9070274 57,30.0219374 L57,47.0566002 C57,48.1715397 56.0930021,49.0785377 54.9780921,49.0785377 Z M29.0219374,29.2070991 C28.5726409,29.2070991 28.2071286,29.5726114 28.2071286,30.0219079 L28.2071286,47.0565708 C28.2071286,47.5058672 28.5726409,47.8713796 29.0219374,47.8713796 L54.9780626,47.8713796 C55.4273591,47.8713796 55.7928714,47.5058672 55.7928714,47.0565708 L55.7928714,30.0219374 C55.7928714,29.5726409 55.4273591,29.2070991 54.9780626,29.2070991 L29.0219374,29.2070991 Z M40.4931979,48.565511 L43.5110193,48.565511 L43.5110193,54.5253913 L40.4931979,54.5253913 C40.4931979,54.5253913 40.4931979,48.565511 40.4931979,48.565511 Z M47.4188519,55.0804723 L36.6004353,55.0804723 L36.6004353,54.4324944 C36.6004353,53.4403558 37.4047158,52.6360458 38.396884,52.6360458 L45.6224032,52.6360458 C46.6145419,52.6360458 47.4188519,53.4403263 47.4188519,54.4324944 L47.4188519,55.0804723 Z M27.6832197,44.084195 L56.2455889,44.084195 L56.2455889,45.2913236 L27.6832197,45.2913236 C27.6832197,45.2913531 27.6832197,44.084195 27.6832197,44.084195 Z M41.1872998,46.6417198 C41.1872998,47.1042283 41.5622198,47.4791483 42.0247283,47.4791483 C42.4872368,47.4791483 42.8621568,47.1042283 42.8621568,46.6417198 C42.8621568,46.1792408 42.4872368,45.8042913 42.0247283,45.8042913 C41.5622198,45.8042913 41.1872998,46.1792408 41.1872998,46.6417198 C41.1872998,46.6417198 41.1872998,46.6417198 41.1872998,46.6417198 Z" id="形状" fill="#FFCB4C" fill-rule="nonzero"></path>
                    <path d="M39.5294591,33.2828538 L41.2568987,35.0102934 C41.663905,35.4172997 41.6138586,35.8563627 41.2070883,36.2631036 L41.1757393,36.2944526 C40.7689689,36.701223 40.1649917,36.9162129 39.7579854,36.5092066 L38.0685009,34.8197221 C37.6323574,35.8744408 37.8789618,37.0408717 38.7020281,37.863938 C39.5251239,38.6870339 40.6914959,38.9336087 41.7462736,38.4974947 L44.0210379,40.7722591 C44.4280442,41.1792654 45.0412521,40.9735062 45.4480225,40.5667358 L45.4793715,40.5353868 C45.8861419,40.1286165 45.9269575,39.6803522 45.5199512,39.2733459 L43.2831123,37.036507 C43.7590393,35.9894854 43.5684385,34.7171521 42.7085967,33.8573399 C41.8485781,32.9972917 40.5764807,32.8069269 39.5294591,33.2828538 Z M45.0204904,40.1078548 C44.8818824,40.2464628 44.6575733,40.2464628 44.5189652,40.1078548 C44.3803572,39.9692467 44.3803572,39.7449376 44.5189652,39.6063296 C44.6575733,39.4677215 44.8818824,39.4677215 45.0204904,39.6063296 C45.1590984,39.7449081 45.1591279,39.9692467 45.0204904,40.1078548 Z" id="形状" fill="#FFCB4C" fill-rule="nonzero"></path>
                </g>
            </g>
        </g>
    </g>
</svg>