<?xml version="1.0" encoding="UTF-8"?>
<svg width="84px" height="84px" viewBox="0 0 84 84" version="1.1" xmlns="http://www.w3.org/2000/svg" xmlns:xlink="http://www.w3.org/1999/xlink">
    <title>技术支援icon4@1x</title>
    <g id="页面-2" stroke="none" stroke-width="1" fill="none" fill-rule="evenodd">
        <g id="技术支援" transform="translate(-472.000000, -1389.000000)">
            <g id="编组-3备份-2" transform="translate(410.000000, 745.000000)">
                <g id="技术支援icon4" transform="translate(62.000000, 644.000000)">
                    <circle id="椭圆形" fill="#16171C" cx="42" cy="42" r="42"></circle>
                    <g id="上锁" transform="translate(28.578947, 25.000000)" fill="#FFCB4C" fill-rule="nonzero">
                        <path d="M3.83458647,13.2222222 L3.83458647,9.44444444 C3.83458647,4.22842181 8.12659356,0 13.4210526,0 C18.7155117,0 23.0075188,4.22842181 23.0075188,9.44444444 L23.0075188,13.2222222 L24.924812,13.2222222 C25.9837038,13.2222222 26.8421053,14.0679066 26.8421053,15.1111111 L26.8421053,28.3333333 C26.8421053,31.4629469 24.266901,34 21.0902256,34 L5.7518797,34 C2.57520426,34 0,31.4629469 0,28.3333333 L0,15.1111111 C0,14.0679066 0.858401419,13.2222222 1.91729323,13.2222222 L3.83458647,13.2222222 L3.83458647,13.2222222 Z M4.07965402,15.5584795 L1.74430437,15.5584795 L1.74430437,29.3629908 C1.74430437,30.633661 2.78987602,31.6637427 4.07965402,31.6637427 L22.7624512,31.6637427 C24.0522292,31.6637427 25.0978009,30.633661 25.0978009,29.3629908 L25.0978009,15.5584795 L4.07965402,15.5584795 Z M21.0498615,13.4210526 L21.0498615,8.76842105 C21.0498615,4.91405485 17.6343274,1.78947368 13.4210526,1.78947368 C9.20777784,1.78947368 5.79224377,4.91405485 5.79224377,8.76842105 L5.79224377,13.4210526 L21.0498615,13.4210526 Z M13.4210526,20.7777778 C14.4799444,20.7777778 15.3383459,21.6234621 15.3383459,22.6666667 L15.3383459,24.5555556 C15.3383459,25.5987601 14.4799444,26.4444444 13.4210526,26.4444444 C12.3621608,26.4444444 11.5037594,25.5987601 11.5037594,24.5555556 L11.5037594,22.6666667 C11.5037594,21.6234621 12.3621608,20.7777778 13.4210526,20.7777778 Z" id="形状"></path>
                    </g>
                </g>
            </g>
        </g>
    </g>
</svg>