<?xml version="1.0" encoding="UTF-8"?>
<svg width="84px" height="84px" viewBox="0 0 84 84" version="1.1" xmlns="http://www.w3.org/2000/svg" xmlns:xlink="http://www.w3.org/1999/xlink">
    <title>技术支援icon2@1x</title>
    <g id="页面-2" stroke="none" stroke-width="1" fill="none" fill-rule="evenodd">
        <g id="技术支援" transform="translate(-472.000000, -1121.000000)">
            <g id="编组-3备份-2" transform="translate(410.000000, 745.000000)">
                <g id="技术支援icon2" transform="translate(62.000000, 376.000000)">
                    <circle id="椭圆形" fill="#16171C" cx="42" cy="42" r="42"></circle>
                    <g id="火箭加速_o" transform="translate(26.000000, 27.000000)" fill="#FFCB4C" fill-rule="nonzero">
                        <path d="M15.5151515,29.0909091 L2.90909091,16.4848485 L0,16.6787879 L7.56363636,9.1151515 L10.860606,8.53333332 L19.3939394,0 L32,0 L32,12.6060606 L23.4666667,21.1393939 L22.8848485,24.4363636 L15.3212121,32 L15.5151515,29.0909091 Z M15.5151515,26.3757575 L30.060606,11.830303 L30.060606,1.93939391 L20.169697,1.93939391 L5.62424241,16.4848485 L15.5151515,26.3757575 L15.5151515,26.3757575 Z M22.3030303,5.81818182 C24.4363636,5.81818182 26.1818182,7.56363636 26.1818182,9.69696968 C26.1818182,11.830303 24.4363636,13.5757575 22.3030303,13.5757575 C20.169697,13.5757575 18.4242424,11.830303 18.4242424,9.69696968 C18.4242424,7.56363636 20.169697,5.81818182 22.3030303,5.81818182 Z M22.3030303,7.75757573 C21.139394,7.75757573 20.3636364,8.53333332 20.3636364,9.69696968 C20.3636364,10.860606 21.139394,11.6363636 22.3030303,11.6363636 C23.4666667,11.6363636 24.2424242,10.860606 24.2424242,9.69696968 C24.2424242,8.53333332 23.4666666,7.75757573 22.3030303,7.75757573 Z M9.1151515,24.0484848 L5.43030305,27.7333333 L3.87878786,26.3757575 L7.56363636,22.6909091 L9.1151515,24.0484848 Z" id="形状"></path>
                    </g>
                </g>
            </g>
        </g>
    </g>
</svg>