<?xml version="1.0" encoding="UTF-8"?>
<svg width="84px" height="84px" viewBox="0 0 84 84" version="1.1" xmlns="http://www.w3.org/2000/svg" xmlns:xlink="http://www.w3.org/1999/xlink">
    <title>技术支援icon3@1x</title>
    <g id="页面-2" stroke="none" stroke-width="1" fill="none" fill-rule="evenodd">
        <g id="技术支援" transform="translate(-472.000000, -1255.000000)">
            <g id="编组-3备份-2" transform="translate(410.000000, 745.000000)">
                <g id="技术支援icon3" transform="translate(62.000000, 510.000000)">
                    <circle id="椭圆形" fill="#16171C" cx="42" cy="42" r="42"></circle>
                    <g id="火箭加速_o" transform="translate(28.000000, 26.000000)" fill="#FFCB4C" fill-rule="nonzero">
                        <g id="隐私保护">
                            <path d="M12.9735696,0.142448359 C13.6448437,-0.0474827865 14.3551563,-0.0474827865 15.0264304,0.142448359 L25.2340253,3.03022337 C26.8697046,3.49302449 28,4.99421155 28,6.70414663 L28,17.7837004 C28,20.4713894 26.9044497,23.0414104 24.9689114,24.893277 L24.6903291,25.1586555 L24.1416709,25.6744315 L23.6050633,26.1702328 L23.0805063,26.645346 L22.5672912,27.1004845 L22.0654177,27.5356482 L21.5748861,27.9508372 C20.9735714,28.4552929 20.3570461,28.9410968 19.7261772,29.4075656 L19.2909367,29.7214542 C17.1430886,31.2395335 15.3992911,32 14,32 C12.6007089,32 10.8569114,31.2395336 8.70906329,29.7214542 L8.27382277,29.4075656 C7.64295387,28.9410968 7.02642858,28.4552929 6.42511392,27.9508372 L5.93458226,27.5356482 L5.43270884,27.1004845 L4.91949366,26.645346 L4.39493669,26.1702328 L3.85832911,25.6744315 L3.58541772,25.4190404 L3.0310886,24.893277 C1.09555035,23.0414104 0,20.4713894 0,17.7837004 L0,6.70414663 C0,4.99421155 1.13029543,3.49302449 2.76597466,3.03022337 L12.9735696,0.142448359 Z M14.3681759,2.05096951 C14.1273815,1.98279629 13.8725664,1.98279629 13.6317719,2.05096951 L3.04945495,5.04496299 C2.4630847,5.21097493 2.05802876,5.7492133 2.05802876,6.36223138 L2.05802876,17.8493146 C2.05802876,19.9268131 2.90480556,21.913367 4.40099887,23.3447128 L4.66704505,23.5976638 L5.19105312,24.0902526 L5.70256729,24.5636113 L6.20232249,25.0162605 L6.68958384,25.4496795 L7.16435133,25.8638683 L7.39732544,26.0628269 L7.85371955,26.4474308 L8.2976198,26.8113253 L8.72902613,27.1559895 C8.87086841,27.266933 9.00977097,27.3756575 9.1479386,27.480684 L9.55215241,27.7854086 L9.75058463,27.9311144 L10.1364251,28.2062541 L10.5083017,28.4621636 C10.5693013,28.5035825 10.6303008,28.5435221 10.6898305,28.5827221 L11.0425989,28.8090467 C12.3096254,29.6026621 13.3047262,29.9998396 14.0007088,29.9998396 C14.6966915,29.9998396 15.6910574,29.6026621 16.9588188,28.8090467 L17.3115872,28.5827221 C17.3711169,28.5435221 17.4321165,28.5035824 17.493116,28.4621636 L17.8649927,28.2062541 C17.928197,28.1618767 17.9921363,28.1174993 18.0560756,28.0709031 L18.4485304,27.7854086 L18.6499023,27.6352652 L19.0614655,27.3201858 L19.2723916,27.1559895 L19.7037979,26.8113253 L20.1476982,26.4466912 L20.3740579,26.2573477 L20.8370664,25.8631287 C20.9149694,25.7965627 20.9936074,25.7277777 21.0722453,25.6589928 L21.5543621,25.2351889 L22.047503,24.7921548 L22.5531377,24.3291508 L23.0712662,23.8461771 L23.6004188,23.3439731 C25.0964271,21.9128044 25.9433889,19.9265561 25.9433889,17.8493146 L25.9433889,6.36223138 C25.9430099,5.74927982 25.5376271,5.21136514 24.9512278,5.04570263 L14.3681759,2.05096951 Z M14,9.99426678 C15.1795946,9.99311596 16.2062545,10.8057426 16.4831012,11.9597055 C16.7599479,13.1136684 16.2148261,14.3082072 15.1646582,14.8488421 L15.1646582,19.5008137 C15.1676183,20.1130748 14.6900368,20.6186316 14.0822844,20.6465896 C13.4745321,20.6745476 12.9531122,20.2149473 12.900557,19.6049676 L12.8955949,19.5008137 L12.8955949,14.8795176 C11.8195109,14.3618603 11.2432459,13.1631173 11.5078382,11.9927145 C11.7724304,10.8223116 12.8072989,9.99245881 14,9.99426678 Z" id="形状"></path>
                        </g>
                    </g>
                </g>
            </g>
        </g>
    </g>
</svg>