<?xml version="1.0" encoding="UTF-8"?>
<svg width="248px" height="100px" viewBox="0 0 248 100" version="1.1" xmlns="http://www.w3.org/2000/svg" xmlns:xlink="http://www.w3.org/1999/xlink">
    <!-- Generator: Sketch 63.1 (92452) - https://sketch.com -->
    <title>标题</title>
    <desc>Created with Sketch.</desc>
    <defs>
        <radialGradient cx="39.8370894%" cy="68.3908638%" fx="39.8370894%" fy="68.3908638%" r="45.6989656%" gradientTransform="translate(0.398371,0.683909),scale(1.000000,0.977236),translate(-0.398371,-0.683909)" id="radialGradient-1">
            <stop stop-color="#FBD535" offset="0%"></stop>
            <stop stop-color="#F5AB18" offset="100%"></stop>
        </radialGradient>
        <linearGradient x1="50%" y1="100%" x2="50%" y2="0.502622378%" id="linearGradient-2">
            <stop stop-color="#000000" offset="0%"></stop>
            <stop stop-color="#F7F7F7" offset="100%"></stop>
        </linearGradient>
        <circle id="path-3" cx="40" cy="40" r="40"></circle>
        <radialGradient cx="39.8370894%" cy="68.3908638%" fx="39.8370894%" fy="68.3908638%" r="45.6989656%" id="radialGradient-5">
            <stop stop-color="#FBD535" offset="0%"></stop>
            <stop stop-color="#F5AB18" offset="100%"></stop>
        </radialGradient>
        <filter x="-15.0%" y="-15.0%" width="129.9%" height="129.9%" filterUnits="objectBoundingBox" id="filter-6">
            <feGaussianBlur stdDeviation="3" in="SourceGraphic"></feGaussianBlur>
        </filter>
        <linearGradient x1="50%" y1="0%" x2="82.8925023%" y2="86.6972253%" id="linearGradient-7">
            <stop stop-color="#7F8189" offset="0%"></stop>
            <stop stop-color="#151515" offset="100%"></stop>
        </linearGradient>
        <linearGradient x1="50%" y1="0.502622378%" x2="50%" y2="100%" id="linearGradient-8">
            <stop stop-color="#575757" offset="0%"></stop>
            <stop stop-color="#636363" offset="100%"></stop>
        </linearGradient>
        <linearGradient x1="-1.11022302e-14%" y1="48.7681439%" x2="100%" y2="51.2318561%" id="linearGradient-9">
            <stop stop-color="#FFE36D" offset="0%"></stop>
            <stop stop-color="#FFBC38" offset="100%"></stop>
        </linearGradient>
        <path d="M55.176,77.36 C63.0693333,76.1653333 66.984,72.528 66.92,66.448 L66.92,66.448 L66.92,64.176 L69.864,64.048 L69.8640467,72.1742001 C69.9066822,75.1822469 71.464,76.6655135 74.536,76.624 L74.536,76.624 L78.792,76.624 C81.736,76.6026667 83.2186667,75.2586667 83.24,72.592 L83.24,72.592 L83.24,70.096 L79.144,70.096 L79.144,71.632 C79.1653333,72.528 78.7066667,72.9653333 77.768,72.944 L76.3026436,72.9431142 C75.5101361,72.9135871 75.1239216,72.4872157 75.144,71.664 L75.144,63.664 L76.808,63.472 C76.8293333,63.536 76.8506667,63.6213333 76.872,63.728 C77.0213333,64.1973333 77.1173333,64.5493333 77.16,64.784 L77.16,64.784 L82.184,64.784 C81.352,61.8186667 80.2426667,59.1733333 78.856,56.848 L78.856,56.848 L74.088,56.848 C74.664,57.936 75.144,58.9386667 75.528,59.856 C71.3893333,60.176 67.272,60.3146667 63.176,60.272 C65.544,58.8853333 67.752,56.9013333 69.8,54.32 L69.8,54.32 L83.336,54.32 L83.336,50.64 L72.168,50.64 L72.168,48.4 L65.768,48.4 L65.768,50.64 L54.728,50.64 L54.728,54.32 L63.144,54.32 C61.6506667,56.496 59.6773333,58.48 57.224,60.272 L57.224,60.272 L57.224,64.24 L61.64,64.24 L61.64064,66.19466 C61.59488,69.94542 59.44,72.6112 55.176,74.192 L55.176,74.192 L55.176,77.36 Z M93.704,77.264 L93.704,54.864 C94.2373333,53.6906667 94.728,52.304 95.176,50.704 L95.176,50.704 L95.176,53.232 L102.344,53.232 L102.344,54.8 L95.944,54.8 L95.944,73.136 L94.344,73.136 L94.344,76.496 L115.656,76.496 L115.656,73.136 L113.96,73.136 L113.96,54.8 L107.464,54.8 L107.464,53.232 L115.208,53.232 L115.208,49.872 L107.464,49.872 L107.464,48.208 L102.344,48.208 L102.344,49.872 L95.368,49.872 C95.4106667,49.7013333 95.4746667,49.424 95.56,49.04 C95.624,48.7626667 95.6773333,48.5493333 95.72,48.4 L95.72,48.4 L90.856,48.4 C90.024,52.8586667 88.456,55.9733333 86.152,57.744 L86.152,57.744 L86.152,60.816 C87.0906667,60.624 87.9546667,60.3466667 88.744,59.984 L88.744,59.984 L88.744,77.264 L93.704,77.264 Z M109.16,59.632 L100.744,59.632 L100.744,58.16 L109.16,58.16 L109.16,59.632 Z M109.16,64.08 L100.744,64.08 L100.744,62.48 L109.16,62.48 L109.16,64.08 Z M109.16,68.592 L100.744,68.592 L100.744,66.96 L109.16,66.96 L109.16,68.592 Z M109.16,73.136 L100.744,73.136 L100.744,71.472 L109.16,71.472 L109.16,73.136 Z M119.048,77.264 C125.170667,74.8533333 128.424,69.4346667 128.808,61.008 L128.808,61.008 L139.048,61.008 L139.048,71.216 C139.090667,72.4746667 138.493333,73.0826667 137.256,73.04 L137.256,73.04 L133.32,73.04 L133.32,76.72 L139.048,76.72 C142.994667,76.8266667 144.914667,75.0133333 144.808,71.28 L144.808,71.28 L144.808,57.488 L128.936,57.488 L128.936,54.288 L147.016,54.288 L147.016,50.64 L136.2,50.64 L136.2,48.4 L129.8,48.4 L129.8,50.64 L119.048,50.64 L119.048,54.288 L123.176,54.288 L123.176,56.784 C123.176,61.5413333 122.888,65.0933333 122.312,67.44 C121.778667,69.7226667 120.690667,71.7386667 119.048,73.488 L119.048,73.488 L119.048,77.264 Z M175.121807,77.0163151 L175.368,77.008 C178.418667,77.136 179.890667,75.344 179.784,71.632 L179.784,71.632 L176.36,71.632 C176.424,72.8266667 176.093333,73.4133333 175.368,73.392 C173.938667,73.5626667 172.861333,71.6426667 172.136,67.632 C171.410667,64.2186667 170.984,60.1973333 170.856,55.568 L170.856,55.568 L179.208,55.568 L179.208,51.888 L177.544,51.888 L177.544,48.912 L173.064,48.912 L173.064,51.888 L170.792,51.888 C170.770667,50.7573333 170.770667,49.52 170.792,48.176 L170.792,48.176 L165.128,48.176 C165.170667,49.456 165.202667,50.6933333 165.224,51.888 L165.224,51.888 L150.664,51.888 L150.664,55.568 L165.416,55.568 C165.757333,61.2 166.397333,65.6373333 167.336,68.88 C168.808,74.4906667 171.485333,77.2 175.368,77.008 L175.121807,77.0163151 Z M150.728,75.216 C156.466667,75.28 161.618667,74.64 166.184,73.296 L166.184,73.296 L166.184,69.84 C164.605333,70.1386667 162.845333,70.3946667 160.904,70.608 L160.904,70.608 L160.904,62.512 L165.032,62.512 L165.032,58.832 L151.24,58.832 L151.24,62.512 L155.624,62.512 L155.624,70.992 C155.048,71.0133333 154.386667,71.0346667 153.64,71.056 L153.64,71.056 L150.728,71.056 L150.728,75.216 Z M211.336,60.592 L211.336,57.136 C206.237333,55.1306667 202.6,52.1226667 200.424,48.112 L200.424,48.112 L193.576,48.112 C191.4,52.1226667 187.762667,55.1306667 182.664,57.136 L182.664,57.136 L182.664,60.592 C189.021333,59.0346667 193.8,56.56 197,53.168 C200.178667,56.5386667 204.957333,59.0133333 211.336,60.592 L211.336,60.592 Z M184.488,77.616 C191.144,76.0373333 194.354667,71.9306667 194.12,65.296 L194.12,65.296 L194.12,59.024 L188.52,59.024 L188.52,66.384 C188.669333,69.8186667 187.325333,72.4106667 184.488,74.16 L184.488,74.16 L184.488,77.616 Z M205.544,77.008 L205.544,59.024 L199.944,59.024 L199.944,77.008 L205.544,77.008 Z M214.952,69.328 C219.005333,69.3706667 222.322667,69.0613333 224.904,68.4 L224.904,68.4 L224.904,64.848 C223.026667,65.296 221.309333,65.4986667 219.752,65.456 C223.08,62.4906667 225.16,58.832 225.992,54.48 L225.992,54.48 L221.448,54.48 C221.213333,55.2906667 220.925333,56.1866667 220.584,57.168 C220.136,57.232 219.56,57.2426667 218.856,57.2 C220.690667,54.9386667 222.152,52.016 223.24,48.432 L223.24,48.432 L218.12,48.432 C217.501333,51.7813333 216.328,54.6933333 214.6,57.168 L214.6,57.168 L214.6,60.752 C215.773333,60.7733333 217.192,60.7626667 218.856,60.72 C217.96,62.1706667 216.658667,63.7493333 214.952,65.456 L214.952,65.456 L214.952,69.328 Z M225.448,63.408 C231.165333,61.7226667 233.992,58.192 233.928,52.816 L233.928,52.816 L237.736,52.816 L237.736,57.008 C237.778667,58.1813333 237.256,58.736 236.168,58.672 L236.168,58.672 L234.6,58.672 L234.6,62.192 L238.029204,62.1917785 C239.731146,62.1693379 240.913412,61.8067451 241.576,61.104 C242.344,60.3786667 242.717333,59.0986667 242.696,57.264 L242.696,57.264 L242.696,49.296 L225.8,49.296 L225.8,52.816 L228.968,52.816 C229.096,55.8453333 227.922667,58.3626667 225.448,60.368 L225.448,60.368 L225.448,63.408 Z M238.152,76.976 C241.181333,77.1253333 242.632,75.472 242.504,72.016 L242.504,72.016 L242.504,63.6 L226.184,63.6 L226.184,76.976 L238.152,76.976 Z M236.203723,73.4613333 L236.04,73.456 L231.144,73.456 L231.144,67.152 L237.544,67.152 L237.544,71.92 C237.608,73.008 237.106667,73.52 236.04,73.456 L236.203723,73.4613333 Z M214.664,75.984 C216.712,75.984 218.482667,75.888 219.976,75.696 C221.469333,75.5253333 223.250667,75.184 225.32,74.672 L225.32,74.672 L225.32,71.088 C221.821333,71.7706667 218.269333,72.08 214.664,72.016 L214.664,72.016 L214.664,75.984 Z" id="path-10"></path>
        <filter x="-3.2%" y="-16.9%" width="107.4%" height="147.5%" filterUnits="objectBoundingBox" id="filter-11">
            <feOffset dx="1" dy="2" in="SourceAlpha" result="shadowOffsetOuter1"></feOffset>
            <feGaussianBlur stdDeviation="2" in="shadowOffsetOuter1" result="shadowBlurOuter1"></feGaussianBlur>
            <feColorMatrix values="0 0 0 0 0   0 0 0 0 0   0 0 0 0 0  0 0 0 0.5 0" type="matrix" in="shadowBlurOuter1"></feColorMatrix>
        </filter>
    </defs>
    <g id="06-推荐好友" stroke="none" stroke-width="1" fill="none" fill-rule="evenodd">
        <g id="充值方式" transform="translate(-296.000000, -100.000000)">
            <g id="标题" transform="translate(296.000000, 100.000000)">
                <g id="图案">
                    <path d="M30.0541313,0 C43.4383743,0 54.7791751,8.76086096 58.6694565,20.8681857 C40.5759752,24.7021295 27,40.7656453 27,60 L26.9993082,60.0360906 C11.8356773,58.5032741 0,45.683103 0,30.094819 C0,13.4739094 13.4556929,0 30.0541313,0 Z" id="形状结合" fill="url(#radialGradient-1)"></path>
                    <g id="椭圆形备份-25" transform="translate(27.000000, 20.000000)">
                        <mask id="mask-4" fill="white">
                            <use xlink:href="#path-3"></use>
                        </mask>
                        <circle stroke="url(#linearGradient-2)" stroke-width="0.5" cx="40" cy="40" r="39.75"></circle>
                        <circle fill="url(#radialGradient-5)" filter="url(#filter-6)" mask="url(#mask-4)" cx="3.10855683" cy="10.0766284" r="30.0766284"></circle>
                    </g>
                    <circle id="椭圆形" stroke="url(#linearGradient-8)" stroke-width="0.5" fill="url(#linearGradient-7)" opacity="0.301099201" cx="67" cy="60" r="39.75"></circle>
                </g>
                <g id="充值方式介绍" fill-rule="nonzero">
                    <use fill="black" fill-opacity="1" filter="url(#filter-11)" xlink:href="#path-10"></use>
                    <use fill="#FFEBB9" xlink:href="#path-10"></use>
                    <use fill="url(#linearGradient-9)" xlink:href="#path-10"></use>
                </g>
            </g>
        </g>
    </g>
</svg>